# xmcd
#
# Track frame offsets:
#	150
#	16958
#	33635
#	48632
#	68023
#	82001
#	95751
#	112457
#	129630
#	144800
#	162078
#	177325
#
# Disc length: 2581 seconds
#
# Revision: 0
# Processed by: cddbd v1.4PL0 Copyright (c) Steve Scherf et al.
# Submitted via: dBpowerAMP V4.0
#
DISCID=a90a130c
DTITLE=Jill Johnson - Good Girl
DYEAR=2001
DGENRE=Country
TTITLE0=Jump in a car
TTITLE1=What´s wrong with you
TTITLE2=Fakin´lovin´me
TTITLE3=Luckiest people
TTITLE4=Good girl
TTITLE5=Too much of you
TTITLE6=Just like you do
TTITLE7=Astroturf
TTITLE8=Moonlight and roses
TTITLE9=Simply because of me
TTITLE10=I didn´t know my heart could break
TTITLE11=Final call
EXTD=
EXTT0=
EXTT1=
EXTT2=
EXTT3=
EXTT4=
EXTT5=
EXTT6=
EXTT7=
EXTT8=
EXTT9=
EXTT10=
EXTT11=
PLAYORDER=
